<?xml version="1.0" standalone="no"?>
<!DOCTYPE svg PUBLIC "-//W3C//DTD SVG 20010904//EN"
 "http://www.w3.org/TR/2001/REC-SVG-20010904/DTD/svg10.dtd">
<svg version="1.0" xmlns="http://www.w3.org/2000/svg"
 width="512.000000pt" height="512.000000pt" viewBox="0 0 512.000000 512.000000"
 preserveAspectRatio="xMidYMid meet">

<g transform="translate(0.000000,512.000000) scale(0.100000,-0.100000)"
fill="#000000" stroke="none">
<path d="M544 5105 c-243 -54 -435 -230 -516 -470 l-23 -70 -3 -1960 c-2
-1398 0 -1979 8 -2025 50 -289 290 -525 580 -570 55 -8 644 -10 2210 -8 l2135
3 40 22 c47 25 95 74 121 123 18 34 19 100 22 1795 2 1938 7 1809 -59 1888
-17 21 -54 50 -83 64 -49 25 -60 27 -239 31 l-189 4 270 272 c246 248 271 276
287 325 20 62 16 140 -10 192 -23 47 -321 346 -369 371 -56 29 -132 34 -197
13 -51 -16 -87 -50 -634 -596 l-580 -579 -1102 0 -1102 0 -3 503 c-3 493 -3
503 -25 542 -25 47 -74 95 -123 121 -29 16 -61 19 -195 21 -107 2 -180 -2
-221 -12z m367 -184 l29 -29 0 -1727 c0 -1842 2 -1771 -45 -1789 -9 -3 -56 -6
-103 -6 -262 -1 -420 -52 -568 -183 l-54 -49 2 1704 3 1703 27 68 c57 141 159
246 289 298 79 31 120 37 262 38 l129 1 29 -29z m3881 -118 c82 -82 151 -158
155 -171 9 -36 -13 -74 -83 -143 l-64 -64 -187 188 -188 187 65 66 c117 119
118 119 302 -63z m-299 -311 c97 -97 177 -182 177 -187 0 -6 -27 -37 -60 -70
l-60 -60 -187 188 -188 187 60 60 c33 33 64 60 70 60 6 0 90 -80 188 -178z
m-528 -902 l-465 -465 -187 188 -188 187 465 465 465 465 187 -187 188 -188
-465 -465z m-949 40 c-75 -76 -124 -135 -137 -165 -22 -50 -46 -204 -56 -367
l-6 -108 -744 -2 -745 -3 -24 -28 c-31 -37 -31 -81 1 -112 23 -24 28 -25 170
-25 l145 0 0 -1160 c0 -1235 -1 -1206 45 -1224 35 -13 76 -6 100 19 l25 24 0
616 0 615 470 0 470 0 0 -345 0 -345 -315 0 -316 0 -24 -25 c-32 -31 -32 -75
-1 -112 l24 -28 872 -3 c582 -1 885 1 910 8 49 13 99 54 116 97 11 26 14 159
14 703 l0 672 -29 29 c-38 38 -74 38 -112 0 l-29 -29 0 -226 0 -226 -1025 0
-1025 0 2 468 3 467 705 6 c754 6 862 13 968 59 37 16 139 113 472 445 l425
425 267 0 c247 0 267 -1 289 -19 l24 -19 3 -1742 2 -1741 -29 -30 -29 -29
-2119 0 c-1779 0 -2129 3 -2184 14 -279 59 -467 344 -405 610 40 169 148 294
316 366 48 21 77 25 230 30 204 8 256 23 316 93 67 79 64 17 64 1304 l0 1163
1012 0 1011 0 -117 -120z m312 -611 c-70 -14 -277 -31 -302 -25 -38 9 -41 38
-22 204 9 81 16 151 16 157 0 5 77 -67 170 -160 l170 -170 -32 -6z m512 -1654
l0 -345 -470 0 -470 0 0 345 0 345 470 0 470 0 0 -345z"/>
</g>
</svg>
